# xmcd
#
# Track frame offsets:
#	150
#	4835
#	24825
#	43519
#	70175
#	97221
#	110781
#	128040
#	143425
#	171300
#	190802
#
# Disc length: 2734 seconds
#
# Revision: 13
# Processed by: cddbd v1.5.2PL0 Copyright (c) Steve Scherf et al.
# Submitted via: Jack! The Knife 20 Magnifico
#
DISCID=910aac0b
DTITLE=Yngwie Malmsteen - Marching Out
DYEAR=1985
DGENRE=Metal
TTITLE0=Prelude
TTITLE1=I'll See The Light, Tonight
TTITLE2=Don't Let It End
TTITLE3=Disciples Of Hell
TTITLE4=I Am A Viking
TTITLE5=Overture 1383
TTITLE6=Anguish And Fear
TTITLE7=On The Run Again
TTITLE8=Soldier Without Faith
TTITLE9=Caught In The Middle
TTITLE10=Marching Out
EXTD=Yngwie Malmsteen
EXTT0=Yngwie Malmsteen
EXTT1=Yngwie Malmsteen
EXTT2=Yngwie Malmsteen
EXTT3=Yngwie Malmsteen
EXTT4=Yngwie Malmsteen
EXTT5=Yngwie Malmsteen
EXTT6=Yngwie Malmsteen
EXTT7=Yngwie Malmsteen
EXTT8=Yngwie Malmsteen
EXTT9=Yngwie Malmsteen
EXTT10=Yngwie Malmsteen
PLAYORDER=
